<?xml version="1.0" encoding="utf-8"?>
<!-- Generator: Adobe Illustrator 16.0.0, SVG Export Plug-In . SVG Version: 6.00 Build 0)  -->
<!DOCTYPE svg PUBLIC "-//W3C//DTD SVG 1.1//EN" "http://www.w3.org/Graphics/SVG/1.1/DTD/svg11.dtd">
<svg version="1.1" id="Layer_1" xmlns="http://www.w3.org/2000/svg" xmlns:xlink="http://www.w3.org/1999/xlink" x="0px" y="0px"
	 width="240px" height="73px" viewBox="0 0 240 73" enable-background="new 0 0 240 73" xml:space="preserve">
<g>
	<g>
		<path fill-rule="evenodd" clip-rule="evenodd" fill="#2D52A9" d="M1.998,6.818h49.084c0,0-17.604,17.729-49.089,15.181
			L1.998,6.818z"/>
		<polygon fill-rule="evenodd" clip-rule="evenodd" fill="#2D52A9" points="2.247,23.91 2.247,66.587 46.535,66.587 		"/>
		<path fill-rule="evenodd" clip-rule="evenodd" fill="#2D52A9" d="M61.709,6.956v47.941L25.728,29.349
			c0,0,19.062-2.183,35.632-22.326L61.709,6.956z"/>
		<path fill-rule="evenodd" clip-rule="evenodd" fill="#E31C23" d="M52.116,66.581h9.593v-7.487L19.48,27.354
			c0,0,10.01,1.188,22.168-5.972c0,0,9.077-5.417,17.04-14.448h-4.146c0,0-21.055,19.533-47.497,17.416L52.116,66.581z"/>
	</g>
	<g>
		<path fill="#2D52A9" d="M91.35,16.095c-2.106-3.388-5.494-3.884-8.76-3.925c-3.389,0-8.76,1.239-8.76,5.867
			c0,3.677,3.967,4.545,8.842,5.453c5.58,1.076,11.363,2.067,11.363,8.307c-0.041,6.529-6.61,8.1-11.445,8.1
			c-4.504,0-9.627-1.859-11.859-6.281l1.984-0.992c1.776,3.514,6.321,5.249,9.875,5.249c3.555,0,9.215-0.992,9.215-6.116
			c0.041-4.339-4.752-5.289-9.503-6.198c-5.29-1.032-10.702-2.108-10.702-7.438c-0.126-6.116,6.238-8.017,10.99-8.017
			c4.133,0,7.728,0.661,10.58,4.918L91.35,16.095z"/>
		<path fill="#2D52A9" d="M126.681,25.021c-0.042,7.603-4.877,14.917-14.588,14.917s-14.587-7.355-14.587-14.999
			c0-7.77,4.834-14.877,14.587-14.877C121.845,10.062,126.722,17.211,126.681,25.021z M99.696,24.979
			c0.041,6.528,4.173,12.893,12.396,12.893c8.265,0,12.438-6.364,12.438-12.893c0-6.694-4.132-12.851-12.438-12.851
			C103.788,12.129,99.654,18.161,99.696,24.979z"/>
		<path fill="#2D52A9" d="M132.959,10.516l19.463,23.926V10.516h2.189v28.927h-0.867L134.24,15.558v23.885h-2.231V10.516H132.959z"
			/>
		<path fill="#2D52A9" d="M184.072,39.442l-3.182-7.108h-17.271l-3.142,7.108h-2.396l12.975-28.927h2.439l12.975,28.927H184.072z
			 M180.023,30.269l-7.768-17.603l-7.77,17.603H180.023z"/>
		<path fill="#2D52A9" d="M193.659,12.542h-10.454v-1.985h23.14v1.985h-10.454v26.9h-2.231V12.542z"/>
		<path fill="#2D52A9" d="M233.574,39.442l-3.182-7.108h-17.273l-3.141,7.108h-2.396l12.975-28.927h2.438l12.977,28.927H233.574z
			 M229.525,30.269l-7.77-17.603l-7.768,17.603H229.525z"/>
	</g>
	<g>
		<path fill="none" stroke="#E31C23" stroke-width="0.5" stroke-miterlimit="10" d="M122.621,54.73
			c-0.348-0.362-0.796-0.647-1.344-0.855s-1.2-0.312-1.956-0.312h-1.626v7.965h1.626c0.769,0,1.425-0.104,1.973-0.312
			c0.55-0.207,0.996-0.493,1.345-0.854c0.348-0.363,0.602-0.785,0.761-1.266c0.159-0.482,0.239-0.995,0.239-1.543
			c0-0.546-0.083-1.062-0.248-1.55C123.225,55.518,122.97,55.092,122.621,54.73z"/>
		<path fill="#E31C23" stroke="#E31C23" stroke-width="0.5" stroke-miterlimit="10" d="M77.878,60.244
			c-0.231-0.285-0.526-0.551-0.888-0.801c-0.361-0.247-0.796-0.497-1.304-0.746l-1.082-0.533c-0.402-0.189-0.748-0.37-1.037-0.541
			c-0.291-0.172-0.529-0.353-0.72-0.542c-0.189-0.189-0.33-0.402-0.425-0.64s-0.143-0.521-0.143-0.853
			c0-0.627,0.219-1.146,0.656-1.555c0.438-0.408,1.006-0.613,1.703-0.613c0.639,0,1.177,0.117,1.614,0.354s0.81,0.604,1.117,1.101
			l0.428-0.249c-0.367-0.591-0.803-1.02-1.306-1.286c-0.502-0.266-1.12-0.399-1.854-0.399c-0.402,0-0.78,0.063-1.136,0.188
			c-0.354,0.123-0.662,0.301-0.921,0.532c-0.259,0.229-0.464,0.511-0.612,0.842c-0.148,0.332-0.223,0.699-0.223,1.1
			c0,0.391,0.057,0.729,0.168,1.012c0.113,0.285,0.281,0.542,0.507,0.771c0.225,0.23,0.499,0.443,0.824,0.64
			c0.325,0.194,0.701,0.399,1.127,0.612l1.1,0.53c0.438,0.215,0.819,0.428,1.146,0.64c0.324,0.213,0.59,0.441,0.798,0.683
			c0.205,0.243,0.36,0.51,0.461,0.799c0.1,0.289,0.149,0.618,0.149,0.984c0,0.745-0.263,1.348-0.787,1.81
			c-0.527,0.461-1.276,0.692-2.245,0.692c-0.78,0-1.472-0.187-2.077-0.559c-0.603-0.374-1.075-0.891-1.418-1.554l-0.479,0.267
			c0.377,0.71,0.895,1.281,1.551,1.712c0.656,0.432,1.465,0.647,2.423,0.647c1.136,0,2.014-0.278,2.635-0.834
			c0.62-0.557,0.931-1.285,0.931-2.187c0-0.402-0.057-0.77-0.168-1.101C78.279,60.836,78.109,60.527,77.878,60.244z"/>
		<polygon fill="#E31C23" stroke="#E31C23" stroke-width="0.5" stroke-miterlimit="10" points="94.898,59.489 100.63,59.489 
			100.63,58.991 94.898,58.991 94.898,53.563 101.286,53.563 101.286,53.084 94.314,53.084 94.314,65.146 101.534,65.146 
			101.534,64.668 94.898,64.668 		"/>
		<path fill="#E31C23" stroke="#E31C23" stroke-width="0.5" stroke-miterlimit="10" d="M123.014,54.398
			c-0.402-0.402-0.905-0.723-1.512-0.959c-0.604-0.237-1.31-0.355-2.116-0.355h-2.277v12.062h0.587v-3.14h1.699
			c0.188,0,0.369-0.005,0.541-0.017c0.171-0.013,0.34-0.029,0.505-0.054l2.691,3.21h0.707l-2.799-3.328
			c0.534-0.141,0.999-0.349,1.396-0.621c0.397-0.272,0.73-0.594,0.996-0.967c0.267-0.373,0.465-0.787,0.597-1.243
			c0.13-0.456,0.196-0.932,0.196-1.429c0-0.615-0.102-1.196-0.303-1.74C123.72,55.273,123.416,54.8,123.014,54.398z M123.399,59.097
			c-0.159,0.48-0.413,0.902-0.761,1.266c-0.349,0.36-0.795,0.646-1.345,0.854c-0.548,0.208-1.204,0.312-1.973,0.312h-1.626v-7.965
			h1.626c0.756,0,1.408,0.104,1.956,0.312s0.996,0.493,1.344,0.855c0.349,0.361,0.604,0.787,0.77,1.273
			c0.165,0.488,0.248,1.004,0.248,1.55C123.639,58.102,123.559,58.614,123.399,59.097z"/>
		<polygon fill="#E31C23" stroke="#E31C23" stroke-width="0.5" stroke-miterlimit="10" points="143.862,64.172 139.48,53.084 
			138.895,53.084 143.809,65.45 143.881,65.45 148.794,53.084 148.244,53.084 		"/>
		
			<rect x="164.229" y="53.084" fill="#E31C23" stroke="#E31C23" stroke-width="0.5" stroke-miterlimit="10" width="0.584" height="12.062"/>
		<path fill="#E31C23" stroke="#E31C23" stroke-width="0.5" stroke-miterlimit="10" d="M189.082,64.182
			c-0.77,0.396-1.633,0.594-2.591,0.594c-0.805,0-1.547-0.143-2.227-0.426c-0.681-0.284-1.269-0.681-1.766-1.188
			c-0.496-0.509-0.886-1.106-1.171-1.792c-0.283-0.686-0.425-1.438-0.425-2.253c0-0.817,0.139-1.567,0.417-2.254
			c0.277-0.686,0.661-1.282,1.152-1.792c0.491-0.508,1.07-0.904,1.738-1.188c0.669-0.284,1.393-0.427,2.175-0.427
			c0.886,0,1.689,0.175,2.412,0.523c0.722,0.349,1.335,0.843,1.845,1.481l0.426-0.318c-0.567-0.698-1.253-1.24-2.059-1.624
			c-0.803-0.384-1.678-0.577-2.624-0.577c-0.853,0-1.647,0.155-2.387,0.463s-1.381,0.732-1.925,1.275
			c-0.545,0.545-0.974,1.195-1.286,1.953c-0.313,0.756-0.472,1.584-0.472,2.483c0,0.898,0.158,1.727,0.472,2.483
			c0.312,0.756,0.747,1.408,1.304,1.951c0.556,0.545,1.209,0.971,1.961,1.278c0.751,0.308,1.563,0.46,2.438,0.46
			c1.018,0,1.951-0.213,2.804-0.638c0.851-0.427,1.561-1.012,2.129-1.757l-0.426-0.32C190.488,63.249,189.851,63.785,189.082,64.182
			z"/>
		<polygon fill="#E31C23" stroke="#E31C23" stroke-width="0.5" stroke-miterlimit="10" points="207.371,59.489 213.103,59.489 
			213.103,58.991 207.371,58.991 207.371,53.563 213.759,53.563 213.759,53.084 206.787,53.084 206.787,65.146 214.007,65.146 
			214.007,64.668 207.371,64.668 		"/>
		<path fill="#E31C23" stroke="#E31C23" stroke-width="0.5" stroke-miterlimit="10" d="M235.818,61.168
			c-0.113-0.332-0.284-0.641-0.516-0.924c-0.229-0.285-0.526-0.551-0.886-0.801c-0.361-0.247-0.796-0.497-1.304-0.746l-1.084-0.533
			c-0.4-0.189-0.746-0.37-1.037-0.541c-0.289-0.172-0.529-0.353-0.718-0.542c-0.189-0.189-0.332-0.402-0.427-0.64
			s-0.141-0.521-0.141-0.853c0-0.627,0.217-1.146,0.654-1.555c0.438-0.408,1.006-0.613,1.705-0.613c0.639,0,1.176,0.117,1.615,0.354
			c0.436,0.237,0.809,0.604,1.116,1.101l0.426-0.249c-0.367-0.591-0.801-1.02-1.304-1.286c-0.504-0.266-1.12-0.399-1.854-0.399
			c-0.402,0-0.781,0.063-1.135,0.188c-0.355,0.123-0.663,0.301-0.922,0.532c-0.26,0.229-0.463,0.511-0.611,0.842
			c-0.15,0.332-0.224,0.699-0.224,1.1c0,0.391,0.055,0.729,0.168,1.012c0.112,0.285,0.281,0.542,0.505,0.771
			c0.225,0.23,0.5,0.443,0.826,0.64c0.324,0.194,0.701,0.399,1.127,0.612l1.099,0.53c0.438,0.215,0.819,0.428,1.145,0.64
			c0.325,0.213,0.592,0.441,0.799,0.683c0.206,0.243,0.36,0.51,0.46,0.799c0.102,0.289,0.152,0.618,0.152,0.984
			c0,0.745-0.264,1.348-0.79,1.81c-0.526,0.461-1.274,0.692-2.243,0.692c-0.782,0-1.474-0.187-2.076-0.559
			c-0.604-0.374-1.076-0.891-1.419-1.554l-0.48,0.267c0.38,0.71,0.896,1.281,1.553,1.712c0.657,0.432,1.463,0.647,2.423,0.647
			c1.134,0,2.012-0.278,2.633-0.834c0.622-0.557,0.933-1.285,0.933-2.187C235.987,61.866,235.931,61.499,235.818,61.168z"/>
	</g>
	<rect x="70.216" y="44.446" fill-rule="evenodd" clip-rule="evenodd" fill="#E31C23" width="165.777" height="3.1"/>
</g>
</svg>
